<svg xmlns="http://www.w3.org/2000/svg" width="20" height="20" fill="none">
  <path fill="#B4BEF0" fill-rule="evenodd" d="M9.553.106a1 1 0 01.894 0l9 4.5A1 1 0 0120 5.5v7h-2V7.118l-7.553 3.776a1 1 0 01-.894 0l-9-4.5a1 1 0 010-1.788l9-4.5zM3.236 5.5L10 8.882 16.764 5.5 10 2.118 3.236 5.5zm1.238 5.15a1 1 0 01.973-.044L10 12.882l4.553-2.276A1 1 0 0116 11.5v5a1 1 0 01-.553.894l-5 2.5a1 1 0 01-.894 0l-5-2.5A1 1 0 014 16.5v-5a1 1 0 01.474-.85zM6 13.117v2.764l4 2 4-2v-2.764l-3.553 1.776a1 1 0 01-.894 0L6 13.118z" clip-rule="evenodd"/>
</svg>
