<svg xmlns="http://www.w3.org/2000/svg" width="20" height="20" fill="none">
  <path fill="#B4BEF0" d="M1 1l.447-.894A1 1 0 000 1h1zm18 0h1a1 1 0 00-1.447-.894L19 1zm0 13.5l.447.894A1 1 0 0020 14.5h-1zM10 19l-.447.894a1 1 0 00.894 0L10 19zm-9-4.5H0a1 1 0 00.553.894L1 14.5zM.553 1.894l9 4.5.894-1.788-9-4.5-.894 1.788zm9.894 4.5l9-4.5-.894-1.788-9 4.5.894 1.788zM18 1v13.5h2V1h-2zm.553 12.606l-9 4.5.894 1.788 9-4.5-.894-1.788zm-8.106 4.5l-9-4.5-.894 1.788 9 4.5.894-1.788zM2 14.5V1H0v13.5h2zm7-9V19h2V5.5H9z"/>
</svg>
