<svg xmlns="http://www.w3.org/2000/svg" width="40" height="40" fill="none">
  <g clip-path="url(#clip0)">
    <path fill="#fff" d="M0 0h40.214v40.214H0V0z"/>
    <path fill="#555659" d="M14.284 28.429l10.143.857s3.714 4.286 3.571 5.214c-.143.929.857 5.357-1 6.286-1.857.928-7.714-1-8.643-1.214-.928-.215-3.928 1.214-5.928-1.358-2-2.714-.5-1.071-.5-2.428-.143-1.357 2.357-7.357 2.357-7.357z"/>
    <path fill="#C3C2CE" d="M26.643 28.357c-.286.072-.429.143-.429.214 0 .215.286.072 1.214.5-1.25.363-2.56.484-3.857.357.162-.316.282-.652.357-1a1.34 1.34 0 00.143-.57c1-.144.572-.287 1.643-.43 0-.07.429-.07.429-.142-.143-.072.643-.215.5-.215a4.365 4.365 0 01-.429-.285 10.508 10.508 0 005-5.786c-2.286-.357-3.214-1.143-3.571-2.786a4.836 4.836 0 00-4.429 1.286c-.071-.357-.071-.643-.143-1-1.071 1.714-1.357 2-2.071 2.143a13.527 13.527 0 01-1.214-3.857c-.358 1.642-.358 2.642-1.072 4.071-.643-.143-1.214-.714-2.286-2.357a5.603 5.603 0 00-.142 1 4.343 4.343 0 00-4.215-1c-.357 1.643-.357 2.286-2.643 2.714.929 2.572 2.215 4.357 4.572 5.643-.2.125-.416.22-.643.286-.143.071-.214.214-.357.285 0 .072-.572-.285-.572-.214.929.143 2 .5 2.929.715.09.177.138.372.143.571.075.347.195.683.357 1A10.264 10.264 0 0112 29.143c1.214-.143 1.214-.286 1.214-.5 0-.072 0-.286-.357-.357C8.786 27.857 7 24.57 6.143 23.143c.857.357 1.285.643 1.428.428.143-.214.143-.285-.143-.5-.857-.857-1.285-3.643-1.428-4.857.571.215 1.571.715 2.5.429 1.143-.357 2.071-1.357 2.714-3 .072 0 .143.071.214.071l.215-.428a.607.607 0 000-.5A11.559 11.559 0 0110.857 11c.067-.505.163-1.006.286-1.5.785.385 1.47.947 2 1.643.29.35.6.685.928 1 .5.5 1.429.714 1.572 0 .071-.215-.143-.429-.286-.643a.072.072 0 01-.071-.072c.785-.285 2.642-.928 4.214-.57h.214c.072 0 .143.07.214 0a9.243 9.243 0 014.572.213l.357.572c-.143.214-.5.428-.429.571.215.286.286.429.786-.143.289-.374.599-.732.929-1.071a7.907 7.907 0 012.714-2c.071.429.214 1.786.214 2.143a8.943 8.943 0 01-.785 3.571c-.072.143-.358.357-.286.572.071.214 0 0 .071.143.072 0 .286.142.357.142l-.071.143c.643 1.643 1.5 2.357 2.643 2.714a4.235 4.235 0 002.786-.357c-.143 1.143-1.072 4.143-2 5.072-.215.214-.215.428-.143.5.071.071.785-.286 1.714-.643-.643 2-3.357 4.857-6.714 5.357z"/>
    <path fill="#fff" d="M33.357 20.357c-.191.41-.52.738-.929.929V20c-1.285.143-3.5.286-3.785-2.714h-.072a4.121 4.121 0 00-1.857-.643c-.214 0-.429-.072-.572-.072l.5-.857s-2.928-.143-4.5 1.572c-.214.214 0-1.072 0-1.072a6.164 6.164 0 00-2.071 1.072l-.286 1.071-.285-1.071a6.165 6.165 0 00-2.072-1.072s.214 1.215 0 1.072c-1.643-1.715-4.5-1.572-4.5-1.572l.5.857a1.572 1.572 0 00-.571.072 6.43 6.43 0 00-1.857.643h-.072c-.286 3-2.5 2.857-3.786 2.714v1.286a1.58 1.58 0 01-.928-.929l-.072.357.072.429c1.928 4.214 3.928 4.857 7 5.571l.928.072 1.215.643.143.857c.285 1.071.714 1.357 1.642 2.071l.358.286 1.071-.572 1.143-.142 1.143.143.857.428.428.143a4.286 4.286 0 001.786-2.357l.143-.857 1.214-.643.929-.072c3.071-.785 5.357-1.857 7.214-6.142l-.071-.215z"/>
    <path fill="#1E1E40" d="M19.144 26.072a1.906 1.906 0 011.643.071.714.714 0 01.214 1.214l-.072.072c-.857 1.143-1.428.857-2.214-.214a.62.62 0 01.215-.93c0-.142.07-.142.214-.213z"/>
    <path fill="#1E1E40" d="M33.572 22.428c-.214.072-.428.215-.643.286a15.088 15.088 0 001.215-4.857l.071-.643-.5.357a3.572 3.572 0 01-2.572.429c-.928-.286-1.785-1.143-2.357-2.643v-.071a.263.263 0 01.072-.215c.34-.74.627-1.504.857-2.285a5.714 5.714 0 00-.143-4.072c-.428-.928-.428-.928-1.428-.714a7.557 7.557 0 00-3.643 2.286.615.615 0 01-.429.214 7.857 7.857 0 00-4.214-.429h-.143a7.857 7.857 0 00-4.214.429.615.615 0 01-.429-.214A8.129 8.129 0 0011.43 8c-1-.286-1-.214-1.428.714a5.557 5.557 0 00-.286 4.143c.214.786.571 1.429.857 2.286a.263.263 0 00.072.214v.071c-.572 1.429-1.286 2.357-2.358 2.643a3.4 3.4 0 01-2.571-.428l-.5-.358.214.572a15.086 15.086 0 001.215 4.857c-.215-.071-.429-.214-.643-.286l-.786-.357.357.786c.072.214 2.072 4.357 5.929 5.643-.357.071-.715.071-1.072.143l-1 .142.929.5c1.525.5 3.11.788 4.714.858A5.555 5.555 0 0016.215 30c.152.225.346.419.571.571.16.107.327.202.5.286h.215l.642-.357c.116.055.236.103.358.143a2.857 2.857 0 002.428 0l.357-.143.643.357h.215c.187-.054.358-.152.5-.286.208-.172.399-.363.571-.571.375.087.758.135 1.143.143a18.257 18.257 0 004.714-.858l1.286-.428L29 28.714c-.358-.071-.715-.071-1.072-.143 3.857-1.286 5.857-5.5 5.929-5.643l.357-.785-.643.285zm-11.5 7.786c-1.071-.643-1.714-1-2.286-1-.571 0-1.143.286-2.285 1-1.643-.928-1.786-3.928-1-5.357.127.274.223.562.285.857.208-.584.446-1.156.715-1.714.5-.929.642-1.143.642-1.143.572-.857 2.643-.857 3.143 0 .267.349.484.733.643 1.143.294.547.533 1.12.715 1.714.071-.286.214-.571.285-.857.857 1.5.715 4.5-.857 5.357zm-6.643-6.928c-.928-.215-1.357-.93-1.857-1.358 1.143.143 2.929.572 3.286.929a1.329 1.329 0 01-1.429.428zm7.286-.43c.357-.356 2.143-.785 3.286-.928a3.93 3.93 0 01-1.858 1.357 1.372 1.372 0 01-1.428-.428zm3.928 5.5c-.285.072-.928.144-.857.144.072.143.429.143 1.715.571-1.252.363-2.56.484-3.858.357.162-.316.282-.652.358-1 .089-.177.138-.372.142-.571 1-.143 2-.357 3-.5a1.556 1.556 0 01-.357-.286 4.354 4.354 0 01-.428-.286 10.507 10.507 0 005-5.785c-2.286-.357-3.215-1.143-3.572-2.786a4.835 4.835 0 00-4.428 1.286c-.072-.357-.072-.643-.143-1-1.072 1.714-1.357 2-2.072 2.143a16.945 16.945 0 01-1.214-4.715c-.357 1.643-.5 3.215-1.214 4.715-.643-.143-.929-.429-2.072-2.143a5.603 5.603 0 00-.142 1 4.708 4.708 0 00-4.429-1.286c-.357 1.643-1.286 2.429-3.571 2.786a10.714 10.714 0 005 5.785c-.125.12-.27.216-.429.286-.143.072-.214.072-.357.143.928.143 1.786.643 2.714.857.072.143.357.214.357.429.076.347.196.683.357 1a10.266 10.266 0 01-3.857-.357c1.215-.143 1.215-.286 1.215-.5 0-.072 0-.286-.357-.358-3.358-.428-5.5-3.357-6.358-4.857.858.357 1.286.643 1.429.5.143-.143-.286-.428-.5-.714-.714-1-1.214-3.571-1.357-4.786.79.336 1.665.41 2.5.215 1.143-.358 2.071-1.358 2.714-3 .072 0 .143.071.214.071l.215-.428a.607.607 0 000-.5A11.556 11.556 0 0111.215 11c.017-.384.065-.767.143-1.143.806.351 1.516.89 2.071 1.571.29.375.6.733.929 1.072A.986.986 0 0016 12.143c.071-.215-.143-.429-.286-.643a.071.071 0 01-.072-.072c.786-.285 2.643-.928 4.215-.571h.357a7.358 7.358 0 014.214.571h-.357c-.143.215-.357.5-.286.643a.979.979 0 001.643.357c.29-.374.6-.732.929-1.071a5.308 5.308 0 012.071-1.571c.079.376.126.758.143 1.142a9.999 9.999 0 01-.786 3.786.607.607 0 000 .5l.215.429c.071 0 .142-.072.214-.072.643 1.643 1.571 2.643 2.714 3a3.486 3.486 0 002.5-.214A15.716 15.716 0 0132.072 23c-.214.357-.571.714-.5.785.072.072.5-.07 1.286-.428-.786 1.428-2.857 4.5-6.214 5z"/>
    <path fill="#fff" d="M19.856 26.786c.355 0 .643-.096.643-.214 0-.119-.288-.215-.643-.215-.355 0-.643.096-.643.215 0 .118.288.214.643.214z"/>
    <path fill="#4A4797" d="M14.856 27.642l2 2.43a10.285 10.285 0 011.643 3c.643 2.07 1.071 1.428 1.428 4.428l-.071 3.5-4.429-.286s-.571-.286-3.714-7.286c-.214-.5-1-5.285-1-5.285l3.143-.429h1v-.072z"/>
    <path fill="#1E1E40" d="M14.928 27.358c-.072.285-.072.5-.143.785l1.786 2.215.428.642a7.587 7.587 0 011.143 2.286c.215.714.572 1.429.857 2.286.143.357.643 1.214.786 1.714.143-.214.143-.857.286-1.071-.072-.215-.429-.572-.5-.786a22.952 22.952 0 01-.857-2.214 9.056 9.056 0 00-1.215-2.5 5 5 0 01-.428-.643L14.928 27.5v-.142z"/>
    <path fill="#2E2C55" d="M39.071 36.857c.071-2.5-.714-2.857-2.572-4.429-1.714-1.428-5.357-2.214-5.357-2.214 0-.428.286-2.571.358-2.928.5-1.786.285-1.93.285-1.93a25.64 25.64 0 00-5.071.644 42.07 42.07 0 01-4.643.5l.428 2.214h-1.785l.071 4.429-1 5.428s-.285 3.929-1.214 2.357c-.857-1.428-.857-1.214-1.5-2.357-1.643-2.571-1-1.357-3.572-5.357-.428-.643 1.858-1.571 1.715-2.286l-.429-1.428.214-1.786-5.857-1 .143.643c.086.414.206.82.357 1.214.215.572.5 1.143.786 1.786l.214.428s-5.428-.07-7.428 3a10.393 10.393 0 00-1.5 2.786 8.071 8.071 0 00-.286 3.572l.714.714 21.572.357 15.143-.714c0 .071.142-1.857.214-3.643z"/>
    <path fill="#1E1E40" d="M19.498 41.857l-18.5-.928c-.016-1.55.056-3.1.215-4.643a7.458 7.458 0 011.571-2.572c2.429-2.714 6-3.214 7.286-3.285a13.489 13.489 0 01-.786-1.786c-.143-.429-.214-.786-.357-1.214l-.214-1.143 6.571 1.143-.286 2.071.357 1.429c.143.571-.428 1-.928 1.428-.214.214-.714.572-.714.714.285.572 1.571 2.358 2.643 3.929l.928 1.357c.465.692.894 1.407 1.286 2.143.357.643.785-.214.785-.214l-.071-1.786 1-5.429.072-4.714h1.785l-.428-2.214h.428a41.267 41.267 0 004.5-.5c1.662-.4 3.363-.616 5.072-.643h.071l.072.071c.214.143.357.5-.143 2.286-.072.357-.286 1.929-.358 2.572.858.214 3.715.857 5.215 2.214 1.928 1.714 2.857 2.5 2.643 5.071-.286 4.643-.072 3.857-.072 3.857l-19.643.786zm1.643-12.786l-.071 4.072-.857 7.357 8.642-.071 8.572-.072 1.286-.143v-3.143c.071-2.5-.715-2.857-2.5-4.357-1.643-1.357-5.143-2.143-5.143-2.143l-.215-.071v-.286c0-.5.286-2.643.358-3.071.135-.467.23-.945.285-1.429-1.588.064-3.167.28-4.714.643-1.42.24-2.85.407-4.286.5l.429 2.214H21.14zM1.784 40.643l11 .286c-.071-.143 6.786 1.285 4-2.215l-.928-1.357c-1.143-1.714-2.358-3.357-2.643-3.928-.286-.572.285-1.072.857-1.572.285-.214.785-.643.714-.786l-.429-1.571.143-1.571-5.071-.858.071.215c.072.357.215.785.286 1.143a9.15 9.15 0 00.786 1.714l.5.928h-.572c-.5 0-4.143.143-6.571 2.429a7.65 7.65 0 00-2 2.929 3.143 3.143 0 00-.143 1.142 18.193 18.193 0 000 3.072z"/>
    <path fill="#1E1E40" d="M12.428 32a.264.264 0 01-.215-.071 2.635 2.635 0 00-2-.929.385.385 0 01-.357-.357.336.336 0 01.357-.357 3.571 3.571 0 012.429 1.071c.143.143.143.357 0 .429-.143.071-.143.214-.214.214zm-4.643 9.072c-.215 0-.357-.143-.286-.358 0 0 .143-2.642.071-3.5 0-.142.072-.357.286-.357.214 0 .357.072.357.286a26.895 26.895 0 01-.071 3.643.471.471 0 01-.357.285zm25.071 0a.771.771 0 01-.5-.215c-.5-.428-.643-1.643-.428-3.357 0-.143.214-.286.357-.286s.286.215.286.358c-.215 2.07.07 2.642.214 2.785.143.143.071.072.143.072.071 0 .357.071.357.214 0 .143-.072.357-.286.357-.071.072-.071.072-.143.072zm-8.786-7.5a.265.265 0 01-.214-.072c-.143-.143-.143-.357 0-.428 3.643-3.286 7.214-3.143 7.357-3.143a.324.324 0 01-.071.643 10.65 10.65 0 00-6.929 2.928c0 .072-.071.072-.143.072z"/>
    <path fill="#1E1E40" d="M23.644 31.857c-.143 0-.285-.072-.285-.214a.322.322 0 01.214-.429A18.78 18.78 0 0131 29.928a.323.323 0 11-.071.643 20.142 20.142 0 00-7.143 1.214.221.221 0 01-.143.072z"/>
  </g>
  <defs>
    <clipPath id="clip0">
      <rect width="40" height="40" fill="#fff" rx="20"/>
    </clipPath>
  </defs>
</svg>
