<svg xmlns="http://www.w3.org/2000/svg" width="19" height="22" fill="none">
  <path fill="#fff" fill-rule="evenodd" d="M12.503 0c9.279 0 4.921 9.18.668 13.708a.912.912 0 01-1.336 0C7.582 9.18 3.225 0 12.503 0zm-.005 3.082c3.498 0 1.498 4.11 0 4.11-1.497 0-3.498-4.11 0-4.11zM4.784 14.346a.5.5 0 10-.113-.993c-.266.03-.542.085-.827.166-.336.096-.645.23-.927.396a.5.5 0 00.505.863 2.98 2.98 0 01.696-.297c.236-.067.457-.111.666-.135zm10.35-.47a.5.5 0 10-.53.848c.425.266.83.564 1.181.894a.5.5 0 10.684-.73 8.684 8.684 0 00-1.335-1.012zm-7.959.023a.5.5 0 10-.526.85c.372.23.7.543.992.907a.5.5 0 00.78-.626 4.98 4.98 0 00-1.246-1.131zm-5.262 2.643a.5.5 0 10-.901-.434 9.055 9.055 0 00-.616 1.766.5.5 0 10.972.237c.132-.54.309-1.077.545-1.57zm15.965.549a.5.5 0 10-.967.255c.056.21.085.428.085.654 0 .31-.061.575-.167.802a.5.5 0 00.907.42c.17-.366.26-.775.26-1.222a3.54 3.54 0 00-.118-.91zm-8.24.005a.5.5 0 00-.91.415c.107.233.201.453.288.656l.013.03c.159.37.367.707.612 1.006a.5.5 0 10.774-.633 3.189 3.189 0 01-.467-.767l-.014-.032c-.086-.201-.184-.431-.295-.675zm3.147 2.876a.5.5 0 00-.236.971 6.263 6.263 0 002.25.135.5.5 0 10-.127-.992 5.265 5.265 0 01-1.887-.114zm-11.766.67a.5.5 0 00-.999-.05c-.02.417-.02.734-.02.893v.014a.5.5 0 101 0v-.014c0-.155 0-.452.02-.844z" clip-rule="evenodd"/>
</svg>
