<svg xmlns="http://www.w3.org/2000/svg" width="18" height="22" fill="none">
  <path fill="#5957DB" fill-rule="evenodd" d="M11.519.633c.23-.356.595-.633 1.019-.633h4.463a1 1 0 011 1v20a1 1 0 01-1 1h-4.463c-.424 0-.788-.277-1.02-.633A2.997 2.997 0 009.003 20a2.997 2.997 0 00-2.518 1.367c-.23.356-.595.633-1.019.633H1a1 1 0 01-1-1v-5h1.5a.5.5 0 000-1H0V1a1 1 0 011-1h4.465c.424 0 .788.277 1.02.633A2.998 2.998 0 009.001 2 2.997 2.997 0 0011.519.633zM4 5.5v6a.5.5 0 01-1 0v-6a.5.5 0 011 0zM11 9V8a2 2 0 10-4 0v1a2 2 0 104 0zM9 5a3 3 0 00-3 3v1a3 3 0 106 0V8a3 3 0 00-3-3zm6 6.5v-6a.5.5 0 00-1 0v6a.5.5 0 001 0zm-7 4a.5.5 0 01.5-.5h1a.5.5 0 010 1h-1a.5.5 0 01-.5-.5zM4.5 15a.5.5 0 000 1h1a.5.5 0 000-1h-1zm8 0a.5.5 0 000 1h1a.5.5 0 000-1h-1zm3.5.5a.5.5 0 01.5-.5H18v1h-1.5a.5.5 0 01-.5-.5z" clip-rule="evenodd"/>
</svg>
