<svg xmlns="http://www.w3.org/2000/svg" width="18" height="22" fill="none">
  <path fill="#fff" fill-rule="evenodd" d="M1 0a1 1 0 00-1 1v20a1 1 0 001 1h16a1 1 0 001-1V1a1 1 0 00-1-1H1zm2 4h5v5H3V4zM2 4a1 1 0 011-1h5a1 1 0 011 1v5a1 1 0 01-1 1H3a1 1 0 01-1-1V4zm10.915-1H15.5a.5.5 0 010 1h-4a.5.5 0 010-1h1.415zm1.17 3H11.5a.5.5 0 000 1h4a.5.5 0 000-1h-1.415zm-1.17 3H15.5a.5.5 0 010 1h-4a.5.5 0 010-1h1.415zm1.17 4H15.5a.5.5 0 000-1h-13a.5.5 0 000 1h11.585zm1.415 3h-13a.5.5 0 010-1h13a.5.5 0 010 1zM3.915 19H9.5a.5.5 0 000-1h-7a.5.5 0 000 1h1.415z" clip-rule="evenodd"/>
</svg>
