<svg xmlns="http://www.w3.org/2000/svg" width="98" height="40" fill="none">
  <path fill="#666" d="M53.784 7.946h2.072v3.976a5.921 5.921 0 01-1.848.924c-.7.215-1.405.322-2.114.322-1.017 0-1.932-.215-2.744-.644a4.964 4.964 0 01-1.918-1.806c-.457-.775-.686-1.647-.686-2.618 0-.97.229-1.839.686-2.604a4.808 4.808 0 011.932-1.806c.821-.439 1.745-.658 2.772-.658.859 0 1.638.145 2.338.434.7.29 1.288.71 1.764 1.26L54.582 6.07c-.7-.737-1.545-1.106-2.534-1.106-.625 0-1.18.13-1.666.392-.485.261-.863.63-1.134 1.106-.27.476-.406 1.022-.406 1.638 0 .607.135 1.148.406 1.624.27.476.644.85 1.12 1.12.485.261 1.036.392 1.652.392.653 0 1.241-.14 1.764-.42v-2.87zM64.207 13l-1.89-2.73H60.23V13h-2.268V3.2h4.242c.868 0 1.62.145 2.254.434.644.29 1.138.7 1.484 1.232.345.532.518 1.162.518 1.89s-.178 1.358-.532 1.89c-.346.523-.84.924-1.484 1.204L66.643 13h-2.436zm-.042-6.244c0-.55-.178-.97-.532-1.26-.355-.299-.873-.448-1.554-.448H60.23v3.416h1.848c.681 0 1.2-.15 1.554-.448.354-.299.532-.719.532-1.26zm11.68 4.424V13h-7.587V3.2h7.406v1.82h-5.152v2.128h4.55v1.764h-4.55v2.268h5.334zm9.393 0V13H77.65V3.2h7.406v1.82h-5.152v2.128h4.55v1.764h-4.55v2.268h5.334zM96.031 3.2V13h-1.862l-4.886-5.95V13h-2.24V3.2h1.876l4.872 5.95V3.2h2.24zM49.684 27.072c-.624 0-1.224-.1-1.8-.3-.568-.2-1.008-.464-1.32-.792l.348-.684c.304.304.708.552 1.212.744a4.514 4.514 0 001.56.276c.752 0 1.316-.136 1.692-.408.376-.28.564-.64.564-1.08 0-.336-.104-.604-.312-.804-.2-.2-.448-.352-.744-.456a10.97 10.97 0 00-1.236-.36 13.999 13.999 0 01-1.512-.456c-.376-.152-.7-.38-.972-.684-.264-.304-.396-.716-.396-1.236 0-.424.112-.808.336-1.152.224-.352.568-.632 1.032-.84.464-.208 1.04-.312 1.728-.312.48 0 .948.068 1.404.204.464.128.864.308 1.2.54l-.3.708a3.997 3.997 0 00-1.128-.516 4.08 4.08 0 00-1.176-.18c-.736 0-1.292.144-1.668.432-.368.28-.552.644-.552 1.092 0 .336.1.608.3.816.208.2.464.356.768.468.312.104.728.22 1.248.348.616.152 1.112.304 1.488.456.384.144.708.368.972.672.264.296.396.7.396 1.212 0 .424-.116.812-.348 1.164-.224.344-.572.62-1.044.828-.472.2-1.052.3-1.74.3zm8.835 0c-.832 0-1.584-.184-2.256-.552a4.11 4.11 0 01-1.572-1.524 4.337 4.337 0 01-.564-2.196c0-.808.188-1.536.564-2.184a4.061 4.061 0 011.584-1.536c.672-.368 1.424-.552 2.256-.552.624 0 1.2.104 1.728.312.528.208.976.512 1.344.912l-.564.564c-.656-.664-1.484-.996-2.484-.996a3.65 3.65 0 00-1.812.456c-.544.304-.972.72-1.284 1.248a3.495 3.495 0 00-.456 1.776c0 .656.152 1.248.456 1.776.312.528.74.944 1.284 1.248a3.65 3.65 0 001.812.456c1.008 0 1.836-.336 2.484-1.008l.564.564c-.368.4-.82.708-1.356.924a4.674 4.674 0 01-1.728.312zM69.352 27l-1.92-2.7c-.216.024-.44.036-.672.036h-2.256V27h-.888v-8.4h3.144c1.072 0 1.912.256 2.52.768.608.512.912 1.216.912 2.112 0 .656-.168 1.212-.504 1.668-.328.448-.8.772-1.416.972L70.324 27h-.972zm-2.616-3.42c.832 0 1.468-.184 1.908-.552.44-.368.66-.884.66-1.548 0-.68-.22-1.2-.66-1.56-.44-.368-1.076-.552-1.908-.552h-2.232v4.212h2.232zm11.612 2.652V27h-5.94v-8.4h5.76v.768h-4.872v2.988h4.344v.756h-4.344v3.12h5.052zm8.147 0V27h-5.94v-8.4h5.76v.768h-4.872v2.988h4.344v.756h-4.344v3.12h5.052zm9.227-7.632V27h-.732l-5.4-6.816V27h-.888v-8.4h.732l5.412 6.816V18.6h.876z"/>
  <path fill="#43D000" fill-rule="evenodd" d="M20 36c-8.837 0-16-7.163-16-16S11.163 4 20 4s16 7.163 16 16-7.163 16-16 16zm12.002 0C36.859 32.351 40 26.542 40 20 40 8.954 31.046 0 20 0S0 8.954 0 20s8.954 20 20 20h78v-4H32.002zM21.359 7.071a13 13 0 00-7.859 1.67l3.25 5.63a6.5 6.5 0 013.93-.835l.679-6.465zM7 20a13 13 0 012.483-7.641l5.258 3.82A6.5 6.5 0 0013.5 20H7zm26 0a13 13 0 01-2.483 7.641l-5.258-3.82A6.5 6.5 0 0026.5 20H33zm-6.5 11.258a13 13 0 01-7.859 1.67l.68-6.464a6.5 6.5 0 003.929-.835l3.25 5.63zm-18.376-5.97a13 13 0 005.376 5.97l3.25-5.629a6.5 6.5 0 01-2.688-2.985l-5.938 2.644zM26.5 8.742a13 13 0 015.376 5.97l-5.938 2.644a6.5 6.5 0 00-2.688-2.985l3.25-5.63zM17 20a3 3 0 116 0 3 3 0 01-6 0z" clip-rule="evenodd"/>
</svg>
