<svg xmlns="http://www.w3.org/2000/svg" width="80" height="80" fill="none">
  <mask id="a" fill="#fff">
    <path fill-rule="evenodd" d="M16 0a8 8 0 00-8 8v6h6a6 6 0 016 6v38h40V20a6 6 0 016-6h6V8a8 8 0 00-8-8H16zm-4 18a4 4 0 014 4v36H4a5.978 5.978 0 00-4 1.528V22a4 4 0 014-4h8zm68 41.528V22a4 4 0 00-4-4h-8a4 4 0 00-4 4v36h12c1.537 0 2.939.578 4 1.528zM4 62a4 4 0 00-4 4v10a4 4 0 004 4h72a4 4 0 004-4V66a4 4 0 00-4-4H4z" clip-rule="evenodd"/>
  </mask>
  <path fill="#ECF2FF" d="M8 14H6v2h2v-2zm12 44h-2v2h2v-2zm40 0v2h2v-2h-2zm12-44v2h2v-2h-2zM16 58v2h2v-2h-2zM0 59.528h-2v4.474l3.334-2.984L0 59.528zm80 0l-1.334 1.49L82 64.002v-4.474h-2zM64 58h-2v2h2v-2zM10 8a6 6 0 016-6v-4C10.477-2 6 2.477 6 8h4zm0 6V8H6v6h4zm4-2H8v4h6v-4zm8 8a8 8 0 00-8-8v4a4 4 0 014 4h4zm0 38V20h-4v38h4zm38-2H20v4h40v-4zm-2-36v38h4V20h-4zm8-8a8 8 0 00-8 8h4a4 4 0 014-4v-4zm6 0h-6v4h6v-4zm-2-4v6h4V8h-4zm-6-6a6 6 0 016 6h4c0-5.523-4.477-10-10-10v4zM16 2h48v-4H16v4zm2 20a6 6 0 00-6-6v4a2 2 0 012 2h4zm0 36V22h-4v36h4zM4 60h12v-4H4v4zm-2.666 1.018A3.978 3.978 0 014 60v-4c-2.048 0-3.92.772-5.334 2.038l2.668 2.98zM-2 22v37.528h4V22h-4zm6-6a6 6 0 00-6 6h4a2 2 0 012-2v-4zm8 0H4v4h8v-4zm66 6v37.528h4V22h-4zm-2-2a2 2 0 012 2h4a6 6 0 00-6-6v4zm-8 0h8v-4h-8v4zm-2 2a2 2 0 012-2v-4a6 6 0 00-6 6h4zm0 36V22h-4v36h4zm10-2H64v4h12v-4zm5.334 2.038A7.977 7.977 0 0076 56v4c1.026 0 1.957.383 2.666 1.018l2.668-2.98zM2 66a2 2 0 012-2v-4a6 6 0 00-6 6h4zm0 10V66h-4v10h4zm2 2a2 2 0 01-2-2h-4a6 6 0 006 6v-4zm72 0H4v4h72v-4zm2-2a2 2 0 01-2 2v4a6 6 0 006-6h-4zm0-10v10h4V66h-4zm-2-2a2 2 0 012 2h4a6 6 0 00-6-6v4zM4 64h72v-4H4v4z" mask="url(#a)"/>
</svg>
